<svg width="120" height="114" viewBox="0 0 120 114" fill="none" xmlns="http://www.w3.org/2000/svg">
<g clip-path="url(#clip0_26_271)">
<path d="M72.951 27.0505H72.3261V9.91663C72.3261 7.28658 71.2824 4.76425 69.4246 2.90452C67.5668 1.04479 65.047 3.31861e-06 62.4196 0H26.1561C24.8551 -3.28636e-06 23.5669 0.256494 22.365 0.754849C21.1631 1.2532 20.071 1.98365 19.1511 2.9045C18.2312 3.82534 17.5015 4.91854 17.0036 6.12168C16.5058 7.32481 16.2495 8.61433 16.2495 9.9166V103.914C16.2495 105.217 16.5058 106.506 17.0036 107.709C17.5015 108.913 18.2312 110.006 19.1511 110.927C20.071 111.847 21.1631 112.578 22.365 113.076C23.5669 113.575 24.8551 113.831 26.156 113.831H62.4196C65.0469 113.831 67.5667 112.786 69.4246 110.927C71.2824 109.067 72.3261 106.545 72.3261 103.914V39.2467H72.9509L72.951 27.0505Z" fill="#3F3D56"/>
<path d="M62.8197 2.57993H58.0861C58.3038 3.11416 58.3869 3.69379 58.328 4.26775C58.2692 4.8417 58.0703 5.39238 57.7488 5.87125C57.4273 6.35012 56.9931 6.7425 56.4844 7.01382C55.9758 7.28515 55.4082 7.42708 54.8318 7.42712H34.0569C33.4805 7.42708 32.913 7.28515 32.4043 7.01383C31.8957 6.74251 31.4615 6.35013 31.14 5.87125C30.8185 5.39238 30.6195 4.84171 30.5607 4.26775C30.5019 3.69379 30.585 3.11416 30.8027 2.57993H26.3815C24.4194 2.57992 22.5377 3.36016 21.1503 4.74898C19.7628 6.1378 18.9834 8.02145 18.9834 9.98554V103.845C18.9834 104.818 19.1748 105.781 19.5465 106.679C19.9183 107.578 20.4633 108.394 21.1503 109.082C21.8372 109.77 22.6528 110.315 23.5504 110.687C24.4479 111.06 25.41 111.251 26.3815 111.251H62.8197C63.7912 111.251 64.7532 111.06 65.6508 110.687C66.5484 110.315 67.364 109.77 68.0509 109.082C68.7379 108.394 69.2828 107.578 69.6546 106.679C70.0264 105.781 70.2178 104.818 70.2178 103.845V9.98554C70.2178 9.01302 70.0264 8.05002 69.6546 7.15153C69.2828 6.25304 68.7379 5.43665 68.0509 4.74898C67.364 4.0613 66.5484 3.51581 65.6508 3.14364C64.7532 2.77148 63.7912 2.57993 62.8197 2.57993V2.57993Z" fill="white"/>
<path d="M44.5368 20.0593H23.3486V56.2926H44.5368V20.0593Z" fill="#E6E6E6"/>
<path d="M65.7871 59.1304H48.1768V100.151H65.7871V59.1304Z" fill="#E6E6E6"/>
<path d="M65.8511 20.0593H48.1943V30.033H65.8511V20.0593Z" fill="#E6E6E6"/>
<path d="M65.8511 32.8101H48.1943V43.5412H65.8511V32.8101Z" fill="#B6C3B8"/>
<path d="M65.8511 46.3185H48.1943V56.2921H65.8511V46.3185Z" fill="#E6E6E6"/>
<path d="M44.5629 59.1304H23.3748V74.9207H44.5629V59.1304Z" fill="#E6E6E6"/>
<path d="M44.5629 77.982H23.3748V100.185H44.5629V77.982Z" fill="#E6E6E6"/>
<path d="M92.6911 45.0423C92.6911 48.4903 89.5061 47.9688 85.5772 47.9688C81.6483 47.9688 78.4633 48.4903 78.4633 45.0423C78.4633 41.5942 80.0191 35.4823 85.5772 35.4823C91.3268 35.4823 92.6911 41.5942 92.6911 45.0423Z" fill="#2F2E41"/>
<path d="M65.5039 38.7721C65.377 39.0292 65.3079 39.3111 65.3015 39.5978C65.2951 39.8846 65.3517 40.1692 65.4671 40.4317C65.5825 40.6943 65.754 40.9282 65.9696 41.1172C66.1851 41.3062 66.4394 41.4456 66.7146 41.5255L67.0731 48.4882L69.988 46.3406L69.2007 40.058C69.3042 39.5864 69.2313 39.0931 68.9958 38.6717C68.7603 38.2502 68.3785 37.9299 67.9229 37.7714C67.4672 37.6129 66.9693 37.6272 66.5234 37.8117C66.0776 37.9961 65.7149 38.3378 65.5039 38.7721V38.7721Z" fill="#FFB8B8"/>
<path d="M97.4577 78.1206C97.6158 77.8815 97.7197 77.6105 97.7619 77.3268C97.8042 77.0432 97.7838 76.7537 97.7021 76.4787C97.6205 76.2038 97.4797 75.9501 97.2895 75.7356C97.0994 75.521 96.8645 75.3508 96.6015 75.237L97.1183 68.2843L93.9573 70.0489L93.9512 76.3808C93.7894 76.8357 93.7999 77.3342 93.9807 77.7819C94.1616 78.2295 94.5002 78.5953 94.9324 78.8097C95.3646 79.0242 95.8604 79.0725 96.3258 78.9455C96.7913 78.8185 97.194 78.525 97.4577 78.1206Z" fill="#FFB8B8"/>
<path d="M82.9009 111.589H85.2902L86.427 102.363L82.9004 102.364L82.9009 111.589Z" fill="#FFB8B8"/>
<path d="M82.2915 110.808L86.9972 110.808H86.9974C87.3912 110.808 87.7812 110.886 88.145 111.037C88.5089 111.188 88.8394 111.409 89.1179 111.687C89.3964 111.966 89.6173 112.297 89.768 112.661C89.9187 113.026 89.9963 113.416 89.9963 113.81V113.908L82.2916 113.908L82.2915 110.808Z" fill="#2F2E41"/>
<path d="M98.104 111.589H100.493L101.63 102.363L98.1036 102.364L98.104 111.589Z" fill="#FFB8B8"/>
<path d="M97.4943 110.808L102.2 110.808H102.2C102.594 110.808 102.984 110.886 103.348 111.037C103.712 111.188 104.042 111.409 104.321 111.687C104.599 111.966 104.82 112.297 104.971 112.661C105.121 113.026 105.199 113.416 105.199 113.81V113.908L97.4944 113.908L97.4943 110.808Z" fill="#2F2E41"/>
<path d="M96.7395 74.2898L96.6357 74.271C95.7653 74.1132 94.8844 73.9538 94.1099 73.787L94.0333 73.7705L94.033 73.692C94.0197 70.1556 94.0064 66.6197 93.9868 63.0519C92.1369 59.3194 91.3592 55.1459 91.7404 50.9968L91.7448 50.953L91.7807 50.9272C92.1179 50.6929 92.5113 50.5526 92.9205 50.521C93.3297 50.4893 93.74 50.5673 94.1091 50.747C94.4702 50.9446 94.7788 51.2257 95.0094 51.5669C95.2399 51.9082 95.3855 52.2996 95.4342 52.7087C96.1386 56.5513 96.8677 60.5304 97.681 64.4515L97.684 64.4658L97.6826 64.4805C97.3813 67.6783 97.0698 70.9851 96.75 74.1847L96.7395 74.2898Z" fill="#B6C3B8"/>
<path d="M95.1815 108.301L95.1625 108.211C94.0447 102.918 92.9656 98.6083 91.9221 94.4401C90.6715 89.4448 89.4864 84.7113 88.29 78.5859C88.4544 86.3104 88.836 91.8602 89.2746 98.2392C89.4727 101.12 89.6775 104.098 89.8853 107.575L89.8917 107.681L89.7856 107.679C86.0459 107.583 82.2144 107.352 78.509 107.128L78.411 107.122L78.4177 107.024C79.1192 96.6733 79.339 89.9473 79.4995 85.036C79.8382 74.6745 79.8902 73.0819 83.746 64.3128C83.8921 63.9801 84.764 62.9972 85.7227 63.1469L93.3087 64.3288L93.322 64.3957C93.5362 65.475 94.5984 68.7502 96.0687 73.2832C99.2117 82.9737 103.961 97.6181 105.445 106.347L105.462 106.446L105.363 106.46C103.208 106.767 101.657 107.086 100.157 107.395C98.7373 107.687 97.2698 107.989 95.2722 108.288L95.1815 108.301Z" fill="#2F2E41"/>
<path d="M88.589 67.0679C86.5642 67.0681 84.5629 66.3649 83.1283 64.9955C82.9041 64.865 82.7145 64.6824 82.5755 64.4631C82.4364 64.2439 82.3521 63.9944 82.3295 63.7358C82.2927 63.4988 82.3081 63.2566 82.3747 63.0262C82.4413 62.7959 82.5575 62.5829 82.7151 62.4023C81.3085 60.698 79.8563 58.9365 78.4661 57.1429L78.4277 57.0934L78.4722 57.0084C79.3817 55.2689 80.3222 53.4703 81.2254 51.693C81.2883 51.5381 81.3918 51.4031 81.5249 51.3021C81.6581 51.2012 81.816 51.1381 81.982 51.1195C82.1262 51.0922 82.2744 51.0947 82.4177 51.1267C82.5609 51.1588 82.6961 51.2197 82.815 51.3059L82.8168 51.2626C82.8545 50.3629 82.8923 49.4633 82.9311 48.6105L82.9352 48.5194L83.0263 48.5173C84.7629 48.479 86.5586 48.4392 88.3225 48.3346L88.3896 48.3306L89.2645 50.2841C90.6854 50.1459 92.1151 50.4364 93.3698 51.1182L93.4275 51.1491L93.4208 51.2142C93.0689 54.5715 93.1455 57.96 93.6486 61.2979C93.6213 62.822 93.5919 64.3797 93.283 65.6214L93.274 65.6576L93.2431 65.6786C91.8642 66.5946 90.2438 67.0783 88.589 67.0679Z" fill="#B6C3B8"/>
<path d="M81.1357 58.5928L81.0191 58.5393C79.6586 57.856 78.2939 57.0981 76.9741 56.3651L76.7918 56.3295C73.3168 55.6312 71.4026 55.2467 68.2675 53.4064L68.2434 53.3921L68.2305 53.3674C66.6607 50.3656 66.2228 47.7416 66.6149 43.686L66.6227 43.6047L66.704 43.5982C67.0439 43.5706 67.5978 43.5521 68.1334 43.5342C68.6546 43.5168 69.1935 43.4987 69.5238 43.4728L69.6005 43.4667L69.6242 43.5399C70.035 44.8098 70.384 45.9945 70.7534 47.2487C71.1332 48.538 71.5257 49.8706 72.0039 51.3512C73.7544 51.8547 78.4473 51.7042 79.9064 51.5053C80.7485 51.4188 81.5991 51.8084 82.1862 52.5429L82.2132 52.5769L82.2062 52.6197C81.885 54.5822 81.5161 56.5562 81.1594 58.4653L81.1357 58.5928Z" fill="#B6C3B8"/>
<path d="M89.6896 45.2854C90.9577 42.9632 90.1051 40.0516 87.7853 38.7822C85.4655 37.5128 82.5569 38.3662 81.2888 40.6884C80.0207 43.0106 80.8733 45.9221 83.1931 47.1915C85.5129 48.461 88.4215 47.6075 89.6896 45.2854Z" fill="#FFB8B8"/>
<path d="M80.0215 42.7015H81.9148L82.7501 40.3603L82.9171 42.7015H83.8221L84.3093 41.3358L84.4068 42.7015H91.1309C91.1309 41.3561 90.5971 40.0659 89.6467 39.1146C88.6964 38.1633 87.4075 37.6288 86.0635 37.6288H85.0889C83.745 37.6288 82.456 38.1633 81.5057 39.1146C80.5554 40.0659 80.0215 41.3561 80.0215 42.7015Z" fill="#2F2E41"/>
<path d="M119.844 114H0.15625C0.11481 114 0.075067 113.983 0.0457644 113.954C0.0164619 113.925 0 113.885 0 113.843C0 113.802 0.0164619 113.762 0.0457644 113.733C0.075067 113.703 0.11481 113.687 0.15625 113.687H119.844C119.885 113.687 119.925 113.703 119.954 113.733C119.984 113.762 120 113.802 120 113.843C120 113.885 119.984 113.925 119.954 113.954C119.925 113.983 119.885 114 119.844 114Z" fill="#3F3D56"/>
</g>
<defs>
<clipPath id="clip0_26_271">
<rect width="120" height="114" fill="white"/>
</clipPath>
</defs>
</svg>
