<svg width="51" height="51" viewBox="0 0 51 51" fill="none" xmlns="http://www.w3.org/2000/svg">
<circle cx="25.6737" cy="25.3261" r="25.3261" fill="#6975E8"/>
<path d="M35.2949 18.2846C33.6527 17.6255 31.9198 17.155 30.1395 16.885C30.1234 16.8826 30.1068 16.8847 30.0921 16.8909C30.0773 16.8971 30.0651 16.9071 30.0572 16.9196C29.834 17.2657 29.5871 17.7184 29.4146 18.0728C27.4955 17.8181 25.5435 17.8181 23.6244 18.0728C23.432 17.678 23.2143 17.293 22.9723 16.9196C22.9642 16.9073 22.952 16.8973 22.9373 16.8912C22.9226 16.885 22.9061 16.8828 22.89 16.885C21.1093 17.1536 19.376 17.6243 17.7346 18.2846C17.7206 18.2893 17.7088 18.2981 17.7014 18.3096C14.4185 22.5998 13.5179 26.7848 13.9595 30.9172C13.9611 30.9366 13.9753 30.956 13.9927 30.9684C15.9044 32.2069 18.0426 33.1525 20.3163 33.7649C20.3323 33.7693 20.3496 33.7692 20.3655 33.7644C20.3814 33.7597 20.3952 33.7507 20.4049 33.7386C20.8924 33.1572 21.3261 32.5439 21.6997 31.8988C21.7075 31.8855 21.7101 31.8703 21.7073 31.8556C21.7044 31.8409 21.6962 31.8274 21.6838 31.8171C21.6757 31.8103 21.666 31.8051 21.6554 31.8018C20.9734 31.5726 20.3129 31.2972 19.6799 30.9781C19.6623 30.9694 19.6491 30.955 19.6432 30.938C19.6373 30.921 19.6391 30.9026 19.6483 30.8868C19.6537 30.8765 19.6618 30.8674 19.672 30.8605C19.805 30.7732 19.9379 30.6819 20.0646 30.5905C20.0758 30.5826 20.0892 30.5776 20.1034 30.5759C20.1176 30.5742 20.1321 30.5759 20.1453 30.5808C24.2908 32.2365 28.7782 32.2365 32.8731 30.5808C32.8868 30.5756 32.9018 30.5738 32.9166 30.5755C32.9314 30.5772 32.9453 30.5824 32.957 30.5905C33.0836 30.6819 33.2166 30.7732 33.3496 30.8605C33.3603 30.8673 33.369 30.8765 33.3747 30.887C33.3805 30.8975 33.3832 30.9091 33.3826 30.9208C33.3819 30.9324 33.378 30.9438 33.3711 30.9538C33.3643 30.9638 33.3547 30.9722 33.3432 30.9781C32.7117 31.3001 32.0504 31.5752 31.3662 31.8005C31.3553 31.8039 31.3454 31.8094 31.3372 31.8166C31.329 31.8238 31.3227 31.8324 31.3187 31.842C31.3151 31.8512 31.3136 31.861 31.3144 31.8708C31.3152 31.8806 31.3183 31.8901 31.3235 31.8988C31.7034 32.5425 32.1387 33.1572 32.6167 33.7386C32.6263 33.7507 32.6401 33.7597 32.6561 33.7644C32.672 33.7692 32.6893 33.7693 32.7053 33.7649C34.9828 33.1544 37.1245 32.2087 39.0384 30.9684C39.0479 30.9626 39.0559 30.955 39.0617 30.9461C39.0674 30.9373 39.0708 30.9274 39.0716 30.9172C39.6003 26.1397 38.1868 21.9893 35.3265 18.3109C35.3237 18.3049 35.3194 18.2994 35.3139 18.2949C35.3085 18.2903 35.302 18.2868 35.2949 18.2846ZM22.3186 28.4004C21.0697 28.4004 20.0424 27.3981 20.0424 26.1688C20.0424 24.938 21.0507 23.9357 22.3186 23.9357C23.5959 23.9357 24.6137 24.9463 24.5947 26.1688C24.5947 27.3981 23.5864 28.4004 22.3186 28.4004ZM30.7331 28.4004C29.4858 28.4004 28.4569 27.3981 28.4569 26.1688C28.4569 24.938 29.4652 23.9357 30.7331 23.9357C32.0104 23.9357 33.0298 24.9463 33.0092 26.1688C33.0092 27.3981 32.0104 28.4004 30.7331 28.4004Z" fill="white"/>
</svg>
