<svg width="51" height="51" viewBox="0 0 51 51" fill="none" xmlns="http://www.w3.org/2000/svg">
<circle cx="25.4999" cy="25.3261" r="25.3261" fill="white"/>
<path fill-rule="evenodd" clip-rule="evenodd" d="M21.1233 11.8948C22.4737 11.8326 22.9042 11.8188 26.344 11.8188C29.7837 11.8188 30.2142 11.8338 31.5634 11.8948C32.9126 11.9558 33.8336 12.1711 34.6394 12.4831C35.4832 12.8019 36.2488 13.3004 36.8819 13.9451C37.5266 14.5771 38.0239 15.3415 38.3416 16.1864C38.6547 16.9923 38.8689 17.9132 38.931 19.2601C38.9932 20.6127 39.007 21.0433 39.007 24.4819C39.007 27.9216 38.992 28.3522 38.931 29.7025C38.87 31.0494 38.6547 31.9703 38.3416 32.7762C38.0239 33.6212 37.5257 34.3869 36.8819 35.0198C36.2488 35.6645 35.4832 36.1618 34.6394 36.4795C33.8336 36.7927 32.9126 37.0068 31.5657 37.0689C30.2142 37.1311 29.7837 37.1449 26.344 37.1449C22.9042 37.1449 22.4737 37.13 21.1233 37.0689C19.7764 37.0079 18.8555 36.7927 18.0497 36.4795C17.2046 36.1618 16.4389 35.6636 15.806 35.0198C15.1618 34.3874 14.6632 33.6222 14.3451 32.7773C14.0332 31.9715 13.8191 31.0505 13.7569 29.7037C13.6947 28.351 13.6809 27.9205 13.6809 24.4819C13.6809 21.0421 13.6959 20.6116 13.7569 19.2624C13.8179 17.9132 14.0332 16.9923 14.3451 16.1864C14.6637 15.3416 15.1626 14.5763 15.8071 13.9439C16.4392 13.2998 17.2041 12.8013 18.0485 12.4831C18.8543 12.1711 19.7753 11.957 21.1222 11.8948H21.1233ZM31.461 14.1742C30.1256 14.1131 29.725 14.1005 26.344 14.1005C22.9629 14.1005 22.5623 14.1131 21.2269 14.1742C19.9917 14.2306 19.3217 14.4366 18.8751 14.6105C18.2845 14.8407 17.862 15.1135 17.4188 15.5567C16.9987 15.9655 16.6753 16.463 16.4725 17.013C16.2987 17.4596 16.0926 18.1296 16.0362 19.3649C15.9752 20.7002 15.9626 21.1008 15.9626 24.4819C15.9626 27.8629 15.9752 28.2635 16.0362 29.5989C16.0926 30.8341 16.2987 31.5041 16.4725 31.9508C16.6751 32.4999 16.9986 32.9983 17.4188 33.407C17.8275 33.8272 18.3259 34.1507 18.8751 34.3533C19.3217 34.5271 19.9917 34.7332 21.2269 34.7896C22.5623 34.8506 22.9618 34.8633 26.344 34.8633C29.7261 34.8633 30.1256 34.8506 31.461 34.7896C32.6962 34.7332 33.3662 34.5271 33.8128 34.3533C34.4034 34.1231 34.8259 33.8502 35.2691 33.407C35.6893 32.9983 36.0128 32.4999 36.2154 31.9508C36.3892 31.5041 36.5953 30.8341 36.6517 29.5989C36.7127 28.2635 36.7253 27.8629 36.7253 24.4819C36.7253 21.1008 36.7127 20.7002 36.6517 19.3649C36.5953 18.1296 36.3892 17.4596 36.2154 17.013C35.9851 16.4224 35.7123 15.9999 35.2691 15.5567C34.8603 15.1366 34.3628 14.8133 33.8128 14.6105C33.3662 14.4366 32.6962 14.2306 31.461 14.1742ZM24.7265 28.3855C25.6298 28.7616 26.6356 28.8123 27.5722 28.5291C28.5087 28.2459 29.3179 27.6464 29.8615 26.8329C30.4051 26.0194 30.6494 25.0424 30.5527 24.0687C30.456 23.0951 30.0243 22.1852 29.3313 21.4945C28.8895 21.053 28.3553 20.715 27.7672 20.5047C27.1791 20.2944 26.5517 20.2171 25.9301 20.2785C25.3085 20.3398 24.7083 20.5381 24.1726 20.8592C23.6369 21.1804 23.179 21.6163 22.832 22.1356C22.485 22.6549 22.2575 23.2447 22.1657 23.8625C22.074 24.4803 22.1204 25.1108 22.3016 25.7085C22.4828 26.3062 22.7942 26.8563 23.2136 27.3192C23.6329 27.7821 24.1496 28.1463 24.7265 28.3855ZM21.7415 19.8794C22.3459 19.275 23.0634 18.7956 23.8531 18.4685C24.6428 18.1414 25.4892 17.973 26.344 17.973C27.1987 17.973 28.0451 18.1414 28.8348 18.4685C29.6245 18.7956 30.342 19.275 30.9464 19.8794C31.5508 20.4838 32.0302 21.2014 32.3573 21.9911C32.6844 22.7807 32.8528 23.6271 32.8528 24.4819C32.8528 25.3366 32.6844 26.183 32.3573 26.9727C32.0302 27.7624 31.5508 28.4799 30.9464 29.0843C29.7257 30.305 28.0702 30.9907 26.344 30.9907C24.6177 30.9907 22.9622 30.305 21.7415 29.0843C20.5209 27.8637 19.8351 26.2081 19.8351 24.4819C19.8351 22.7556 20.5209 21.1001 21.7415 19.8794ZM34.2963 18.9424C34.4461 18.8011 34.566 18.6312 34.649 18.4427C34.7319 18.2543 34.7762 18.0511 34.7792 17.8452C34.7822 17.6393 34.7438 17.4349 34.6664 17.2442C34.589 17.0534 34.4741 16.88 34.3285 16.7344C34.1829 16.5888 34.0096 16.4739 33.8188 16.3965C33.628 16.3191 33.4236 16.2808 33.2178 16.2838C33.0119 16.2868 32.8087 16.3311 32.6202 16.414C32.4318 16.497 32.2619 16.6169 32.1206 16.7666C31.8458 17.0579 31.6954 17.4448 31.7012 17.8452C31.7071 18.2456 31.8687 18.628 32.1519 18.9111C32.435 19.1943 32.8174 19.3559 33.2178 19.3617C33.6182 19.3676 34.0051 19.2171 34.2963 18.9424Z" fill="#011C2A"/>
</svg>
