<svg width="51" height="51" viewBox="0 0 51 51" fill="none" xmlns="http://www.w3.org/2000/svg">
<circle cx="25.3261" cy="25.3261" r="25.3261" fill="#6975E8"/>
<path d="M38.8332 17.6024C37.9018 17.998 36.8883 18.2827 35.8443 18.3936C36.9282 17.7595 37.7399 16.7578 38.127 15.5763C37.11 16.1721 35.9957 16.5899 34.8338 16.8111C34.3482 16.2999 33.7609 15.8926 33.1084 15.6147C32.4559 15.3367 31.7523 15.1941 31.0415 15.1957C28.1652 15.1957 25.8521 17.4915 25.8521 20.3088C25.8521 20.7045 25.9008 21.1001 25.9799 21.4807C21.6732 21.2589 17.8321 19.2328 15.2785 16.1308C14.8132 16.9134 14.5694 17.8045 14.5724 18.7113C14.5724 20.4857 15.4885 22.0502 16.8855 22.9703C16.0622 22.9384 15.2582 22.7155 14.5389 22.3199V22.3829C14.5389 24.8675 16.3224 26.9266 18.6995 27.4001C18.2532 27.5143 17.7941 27.5727 17.3329 27.574C16.9951 27.574 16.6755 27.541 16.3529 27.496C17.0103 29.5221 18.9247 30.9937 21.2044 31.0417C19.4209 32.4174 17.1868 33.2266 14.7611 33.2266C14.3258 33.2266 13.9241 33.2116 13.5071 33.1637C15.8081 34.6173 18.5382 35.4565 21.4784 35.4565C31.0232 35.4565 36.2461 27.6699 36.2461 20.9113C36.2461 20.6895 36.2461 20.4677 36.2309 20.2459C37.2413 19.5176 38.127 18.6154 38.8332 17.6024Z" fill="white"/>
</svg>
